<svg width="420" height="420" viewBox="0 0 420 420" fill="none" xmlns="http://www.w3.org/2000/svg">
<rect width="420" height="420" rx="100" fill="url(#paint0_linear_12_6)"/>
<path d="M135 310V110H215C230 110 242 112 252 116C262 121 269 127 275 134C280 142 282 151 282 161C282 169 281 176 277 182C274 188 270 192 264 196C259 200 253 203 246 204V206C254 206 261 209 267 213C274 216 279 222 284 229C288 236 290 245 290 255C290 265 287 275 282 283C277 291 269 298 259 303C249 308 236 310 221 310H135ZM178 275H212C224 275 233 273 238 269C244 264 246 258 246 250C246 245 245 240 242 236C240 232 236 228 231 226C226 223 220 222 213 222H178V275ZM178 194H209C215 194 220 193 225 190C229 188 233 185 235 182C238 178 239 173 239 168C239 161 237 155 232 151C227 146 219 144 210 144H178V194Z" fill="white"/>
<defs>
<linearGradient id="paint0_linear_12_6" x1="0" y1="0" x2="420" y2="420" gradientUnits="userSpaceOnUse">
<stop stop-color="#8B5CF6"/>
<stop offset="1" stop-color="#F59E0B"/>
</linearGradient>
</defs>
</svg>